<?xml version="1.0" standalone="no"?><!DOCTYPE svg PUBLIC "-//W3C//DTD SVG 1.1//EN" "http://www.w3.org/Graphics/SVG/1.1/DTD/svg11.dtd"><svg t="1747548442277" class="icon" viewBox="0 0 1024 1024" version="1.1" xmlns="http://www.w3.org/2000/svg" p-id="5957" xmlns:xlink="http://www.w3.org/1999/xlink" width="200" height="200"><path d="M576 576h256V512H576z m-128 192V384h192V320H192v64h192v384z m416-640h-704A96 96 0 0 0 64 224v576A96 96 0 0 0 160 896h320v-64h-320a32 32 0 0 1-32-32v-576a32 32 0 0 1 32-32h704a32 32 0 0 1 32 32V576h64V224A96 96 0 0 0 864 128z" fill="#616971" p-id="5958"></path><path d="M608 704h64v-64h-64a64 64 0 0 0-64 64v256a64 64 0 0 0 64 64h64v-64h-64z m352-64h-64v64h64v256h-64v64h64a64 64 0 0 0 64-64v-256a64 64 0 0 0-64-64z m-64 224h-224v64H896z m-224-64h64v-64h-64z" fill="#FF8810" p-id="5959"></path></svg>